<svg width="102" height="24" viewBox="0 0 102 24" fill="none" xmlns="http://www.w3.org/2000/svg">
<g clip-path="url(#clip0)">
<path d="M5.03856 1.54334C-5.40291 7.38309 2.1121 24.2017 11.9307 18.7103C16.639 16.077 21.1813 7.17442 23.8469 1.53533C18.8979 0.154889 9.74689 -1.08996 5.03856 1.54334Z" fill="#FC2D81"/>
<path d="M18.9619 22.4567C29.4034 16.6169 21.8884 -0.201723 12.0698 5.28965C7.3615 7.92295 2.81915 16.8256 0.153626 22.4647C5.10256 23.8451 14.2536 25.09 18.9619 22.4567Z" fill="#386FFE"/>
<path d="M39.8002 21.24C38.5042 21.24 37.2482 21.056 36.0322 20.688C34.8322 20.32 33.8802 19.832 33.1762 19.224L34.2562 16.8C34.9442 17.344 35.7842 17.792 36.7762 18.144C37.7842 18.48 38.7922 18.648 39.8002 18.648C41.0482 18.648 41.9762 18.448 42.5842 18.048C43.2082 17.648 43.5202 17.12 43.5202 16.464C43.5202 15.984 43.3442 15.592 42.9922 15.288C42.6562 14.968 42.2242 14.72 41.6962 14.544C41.1682 14.368 40.4482 14.168 39.5362 13.944C38.2562 13.64 37.2162 13.336 36.4162 13.032C35.6322 12.728 34.9522 12.256 34.3762 11.616C33.8162 10.96 33.5362 10.08 33.5362 8.976C33.5362 8.048 33.7842 7.208 34.2802 6.456C34.7922 5.688 35.5522 5.08 36.5602 4.632C37.5842 4.184 38.8322 3.96 40.3042 3.96C41.3282 3.96 42.3362 4.088 43.3282 4.344C44.3202 4.6 45.1762 4.968 45.8962 5.448L44.9122 7.872C44.1762 7.44 43.4082 7.112 42.6082 6.888C41.8082 6.664 41.0322 6.552 40.2802 6.552C39.0482 6.552 38.1282 6.76 37.5202 7.176C36.9282 7.592 36.6322 8.144 36.6322 8.832C36.6322 9.312 36.8002 9.704 37.1362 10.008C37.4882 10.312 37.9282 10.552 38.4562 10.728C38.9842 10.904 39.7042 11.104 40.6162 11.328C41.8642 11.616 42.8882 11.92 43.6882 12.24C44.4882 12.544 45.1682 13.016 45.7282 13.656C46.3042 14.296 46.5922 15.16 46.5922 16.248C46.5922 17.176 46.3362 18.016 45.8242 18.768C45.3282 19.52 44.5682 20.12 43.5442 20.568C42.5202 21.016 41.2722 21.24 39.8002 21.24ZM57.5339 21.24C55.8219 21.24 54.2779 20.872 52.9019 20.136C51.5259 19.384 50.4459 18.352 49.6619 17.04C48.8779 15.712 48.4859 14.232 48.4859 12.6C48.4859 10.968 48.8779 9.496 49.6619 8.184C50.4459 6.856 51.5259 5.824 52.9019 5.088C54.2779 4.336 55.8219 3.96 57.5339 3.96C59.2459 3.96 60.7899 4.336 62.1659 5.088C63.5419 5.824 64.6219 6.848 65.4059 8.16C66.1899 9.472 66.5819 10.952 66.5819 12.6C66.5819 14.248 66.1899 15.728 65.4059 17.04C64.6219 18.352 63.5419 19.384 62.1659 20.136C60.7899 20.872 59.2459 21.24 57.5339 21.24ZM57.5339 18.504C58.6539 18.504 59.6619 18.256 60.5579 17.76C61.4539 17.248 62.1579 16.544 62.6699 15.648C63.1819 14.736 63.4379 13.72 63.4379 12.6C63.4379 11.48 63.1819 10.472 62.6699 9.576C62.1579 8.664 61.4539 7.96 60.5579 7.464C59.6619 6.952 58.6539 6.696 57.5339 6.696C56.4139 6.696 55.4059 6.952 54.5099 7.464C53.6139 7.96 52.9099 8.664 52.3979 9.576C51.8859 10.472 51.6299 11.48 51.6299 12.6C51.6299 13.72 51.8859 14.736 52.3979 15.648C52.9099 16.544 53.6139 17.248 54.5099 17.76C55.4059 18.256 56.4139 18.504 57.5339 18.504ZM84.71 4.2L77.39 21H74.318L66.974 4.2H70.358L75.95 17.16L81.59 4.2H84.71ZM96.8397 17.112H88.4397L86.7837 21H83.5677L91.1277 4.2H94.1997L101.784 21H98.5197L96.8397 17.112ZM95.8077 14.664L92.6397 7.32L89.4957 14.664H95.8077Z" fill="white"/>
</g>
<defs>
<clipPath id="clip0">
<rect x="0.000244141" width="102" height="24" fill="none"/>
</clipPath>
</defs>
</svg>
