<svg width="119" height="119" viewBox="0 0 119 119" fill="none" xmlns="http://www.w3.org/2000/svg">
<circle cx="59.5" cy="59.5" r="56.5" stroke="#9B51E0" stroke-width="6"/>
<path d="M44.2854 43.5904C44.2854 42.5531 44.2854 41.6195 44.3951 40.5822C44.5047 39.2337 44.6692 38.9744 46.5336 38.7669C49.4946 38.4558 52.2362 38.352 55.0327 38.352V40.9453C52.4555 40.9972 49.8784 41.1009 47.3561 41.2565C47.0271 41.2565 46.9174 41.4121 46.9174 41.5677C46.8625 42.0863 46.8625 42.8643 46.8625 43.5904C46.8625 44.3165 46.9174 45.0945 46.9174 45.6131C46.9174 45.8206 47.0271 45.9243 47.3561 45.9243C50.7557 46.1836 54.265 46.2355 57.7743 46.2874V43.3311H60.516V46.2874C64.0253 46.2874 67.5346 46.1836 70.9343 45.9243C71.2633 45.8724 71.3729 45.7687 71.3729 45.6131C71.4278 45.0945 71.4278 44.3165 71.4278 43.5904C71.4278 42.8643 71.3729 42.0863 71.3729 41.5677C71.3729 41.3602 71.2633 41.2565 70.9343 41.2565C68.412 41.1009 65.8348 40.9971 63.2576 40.9453V38.352C66.0541 38.4039 68.7958 38.5076 71.7568 38.7669C73.6211 38.9744 73.7856 39.2337 73.8953 40.5822C74.0049 41.6195 74.0049 42.6049 74.0049 43.5904C74.0049 44.6277 74.0049 45.5613 73.8953 46.5985C73.7856 47.947 73.6211 48.2064 71.7568 48.4138C67.3701 48.8287 63.5318 48.8806 59.1452 48.8806C54.7585 48.8806 50.8654 48.8806 46.5336 48.4138C44.6692 48.2064 44.5047 47.947 44.3951 46.5985C44.3402 45.5613 44.2854 44.5758 44.2854 43.5904V43.5904ZM55.0875 56.401C51.1944 56.3491 47.1916 56.1417 43.5726 55.623C40.5019 55.1563 38.1989 53.341 37.212 50.4884L34.3606 51.0071C35.6218 54.8451 38.4731 57.4902 42.8049 58.2163C47.4657 58.9943 53.9909 59.0461 59.2 59.0461C64.464 59.0461 70.9343 58.9942 75.5951 58.2163C79.9817 57.4902 82.8331 54.7932 84.0394 50.9033L81.1881 50.4366C80.2011 53.3929 77.8981 55.26 74.7726 55.6749C69.8376 56.401 64.135 56.4529 59.1452 56.5048C58.7065 56.5048 58.213 56.5048 57.7743 56.5048V54.0152C58.213 54.0152 58.7065 54.0152 59.1452 54.0152C64.2446 54.0152 69.3441 53.9115 74.2791 53.2373C76.9111 52.8742 78.5012 51.0071 78.9399 48.6731C79.1592 47.4284 79.3237 45.4575 79.3786 43.5904C79.3237 41.7232 79.1592 39.7524 78.9399 38.5076C78.5012 36.1737 76.9111 34.2547 74.2791 33.9435C72.4696 33.6842 70.6053 33.5286 68.6861 33.4249V30.9353C70.7698 31.0391 72.7986 31.2465 74.7726 31.5058C78.1174 31.9726 80.5849 34.151 81.4074 37.4703C81.4622 37.6259 81.5171 37.8334 81.5171 38.0408L84.3135 37.5741C84.2587 37.211 84.149 36.8479 84.0394 36.5368C82.8331 32.5432 79.9817 29.7943 75.5403 29.0163C70.9343 28.1865 64.464 28.1346 59.2 28.1346C53.936 28.1346 47.4657 28.1865 42.8049 28.9645C38.3634 29.6906 35.4573 32.4913 34.3058 36.4849C33.7026 38.5076 33.593 41.4121 33.5381 43.5904C33.593 45.0426 33.6478 46.8579 33.8671 48.5176L36.6636 48.0508C36.3895 46.3392 36.3346 44.6795 36.3346 43.5904C36.3346 42.7605 36.3895 41.6195 36.4991 40.4266L39.1859 40.8415C39.1311 41.7232 39.0763 42.6568 39.0214 43.5904C39.0763 45.4575 39.2408 47.4284 39.4601 48.6731C39.8988 51.0071 41.4889 52.9261 44.1209 53.2373C46.8626 53.6003 49.6042 53.7559 52.4007 53.8596V51.1627C50.0429 51.0589 47.6851 50.9552 45.4917 50.6959C43.3533 50.4884 42.1469 49.8142 41.9276 47.6359C41.8179 46.443 41.7631 44.8351 41.7631 43.5385C41.7631 42.2419 41.818 40.6341 41.9276 39.4412C42.1469 37.211 43.2984 36.5886 45.4917 36.3812C49.8235 35.9144 54.7585 35.8106 59.2548 35.8106C60.5708 35.8106 61.9417 35.8106 63.3673 35.8625V33.1656C61.9965 33.1656 60.6257 33.1137 59.2548 33.1137C54.1554 33.1137 49.0559 33.2174 44.1209 33.8916C41.5986 34.2028 40.0084 36.0181 39.5149 38.2483L36.883 37.8334C36.9378 37.6778 36.9378 37.5741 36.9926 37.4185C37.8151 34.0991 40.2826 31.9208 43.6274 31.454C48.5624 30.7279 54.265 30.676 59.2548 30.6241C61.4482 30.6241 63.7511 30.6241 66.109 30.7279V35.9144C68.4668 36.0181 70.8246 36.1218 73.0179 36.3812C75.2113 36.5886 76.3627 37.211 76.5821 39.4412C76.6917 40.6341 76.7466 42.2419 76.7466 43.5385C76.7466 44.8351 76.6917 46.443 76.5821 47.6359C76.3627 49.866 75.2113 50.4884 73.0179 50.6959C68.6861 51.1627 63.7511 51.2664 59.2548 51.2664C57.9388 51.2664 56.568 51.2664 55.1424 51.2145V56.401L55.0875 56.401ZM87.2197 48.8287C87.0552 49.7623 86.8907 50.6959 86.5617 51.6295C85.136 56.0898 81.3526 59.7722 76.3627 60.6021C70.8794 61.5357 64.7381 61.5875 59.1452 61.5875C54.7585 61.5875 50.0429 61.5356 45.5466 61.0689L45.3272 62.6767L44.5596 68.0188L47.3012 68.3818L47.9592 63.8177C51.7427 64.077 55.581 64.1289 59.2 64.1289C65.0671 64.1289 71.5374 64.0252 77.2401 63.0397C83.1072 62.0543 87.3842 57.9051 89.1937 52.6667C90.1807 49.8142 90.4 46.5467 90.4 43.5385C90.4 40.5822 90.1807 37.3147 89.1937 34.4103C87.3842 29.2238 83.1072 25.0746 77.2401 24.0892C71.5374 23.1556 65.0123 23 59.2 23C53.3329 23 46.8626 23.1556 41.1599 24.0892C35.2928 25.0746 31.0158 29.2238 29.2063 34.4622C28.2193 37.3147 28.0548 40.5822 28 43.5904C28 46.5467 28.2193 49.8142 29.2063 52.7186C31.0158 57.957 35.2928 62.1062 41.1599 63.0916C41.5986 63.1435 42.0373 63.2472 42.4759 63.2991L42.8598 60.7577C42.5856 60.7058 42.2566 60.6539 41.9824 60.6021C37.0475 59.7722 33.2091 56.0898 31.7835 51.6295C30.961 49.0362 30.8513 46.2874 30.8513 43.5385C30.8513 40.7897 30.961 38.0927 31.7835 35.4476C33.2091 31.0391 37.0475 27.4085 41.9824 26.5787C47.4657 25.6451 53.607 25.5932 59.2 25.5932C64.793 25.5932 70.9343 25.6451 76.4176 26.5787C81.3526 27.4085 85.1909 31.0909 86.6165 35.5513C87.439 38.1446 87.5487 40.8934 87.5487 43.6422C87.5487 44.5758 87.5487 45.4575 87.4938 46.3911L84.8618 45.9243C84.9167 45.0945 84.9167 44.3165 84.9167 43.6422C84.9167 42.6049 84.8618 41.3083 84.7522 40.1154L82.0106 40.5822C82.1202 41.7751 82.1751 42.8643 82.1751 43.6422C82.1751 44.7314 82.1202 46.3392 81.846 47.9989L87.2197 48.8287ZM57.8292 38.3002C58.7613 38.3002 59.6387 38.3002 60.5708 38.3002V40.8934C59.6387 40.8934 58.7613 40.8934 57.8292 40.8934V38.3002Z" fill="#9B51E0"/>
<path d="M49.6924 82.3633H45.0693L44.1904 85H41.3867L46.1504 72.2031H48.5938L53.3838 85H50.5801L49.6924 82.3633ZM45.7812 80.2275H48.9805L47.3721 75.4375L45.7812 80.2275ZM57.2158 80.4912V85H54.5791V72.2031H59.5713C60.5322 72.2031 61.376 72.3789 62.1025 72.7305C62.835 73.082 63.3975 73.583 63.79 74.2334C64.1826 74.8779 64.3789 75.6133 64.3789 76.4395C64.3789 77.6934 63.9482 78.6836 63.0869 79.4102C62.2314 80.1309 61.0449 80.4912 59.5273 80.4912H57.2158ZM57.2158 78.3555H59.5713C60.2686 78.3555 60.7988 78.1914 61.1621 77.8633C61.5312 77.5352 61.7158 77.0664 61.7158 76.457C61.7158 75.8301 61.5312 75.3232 61.1621 74.9365C60.793 74.5498 60.2832 74.3506 59.6328 74.3389H57.2158V78.3555ZM68.835 80.4912V85H66.1982V72.2031H71.1904C72.1514 72.2031 72.9951 72.3789 73.7217 72.7305C74.4541 73.082 75.0166 73.583 75.4092 74.2334C75.8018 74.8779 75.998 75.6133 75.998 76.4395C75.998 77.6934 75.5674 78.6836 74.7061 79.4102C73.8506 80.1309 72.6641 80.4912 71.1465 80.4912H68.835ZM68.835 78.3555H71.1904C71.8877 78.3555 72.418 78.1914 72.7812 77.8633C73.1504 77.5352 73.335 77.0664 73.335 76.457C73.335 75.8301 73.1504 75.3232 72.7812 74.9365C72.4121 74.5498 71.9023 74.3506 71.252 74.3389H68.835V78.3555ZM48.5947 96.5352H46.0264L45.5381 98H43.9805L46.627 90.8906H47.9844L50.6455 98H49.0879L48.5947 96.5352ZM46.4219 95.3486H48.1992L47.3057 92.6875L46.4219 95.3486ZM53.9414 95.3975H52.7744V98H51.3096V90.8906H53.9512C54.791 90.8906 55.4388 91.0778 55.8945 91.4521C56.3503 91.8265 56.5781 92.3555 56.5781 93.0391C56.5781 93.5241 56.4723 93.9294 56.2607 94.2549C56.0524 94.5771 55.735 94.8343 55.3086 95.0264L56.8467 97.9316V98H55.2744L53.9414 95.3975ZM52.7744 94.2109H53.9561C54.3239 94.2109 54.6087 94.1182 54.8105 93.9326C55.0124 93.7438 55.1133 93.485 55.1133 93.1562C55.1133 92.821 55.0173 92.5573 54.8252 92.3652C54.6364 92.1732 54.3451 92.0771 53.9512 92.0771H52.7744V94.2109ZM59.6104 90.8906L61.4365 96.0469L63.2529 90.8906H65.1768V98H63.707V96.0566L63.8535 92.7021L61.9346 98H60.9287L59.0146 92.707L59.1611 96.0566V98H57.6963V90.8906H59.6104ZM73.668 98H68.7949V97.0332L71.0947 94.582C71.4105 94.237 71.6432 93.9359 71.793 93.6787C71.946 93.4215 72.0225 93.1774 72.0225 92.9463C72.0225 92.6305 71.9427 92.3831 71.7832 92.2041C71.6237 92.0218 71.3958 91.9307 71.0996 91.9307C70.7806 91.9307 70.5283 92.0413 70.3428 92.2627C70.1605 92.4808 70.0693 92.7689 70.0693 93.127H68.6533C68.6533 92.694 68.7559 92.2985 68.9609 91.9404C69.1693 91.5824 69.4622 91.3024 69.8398 91.1006C70.2174 90.8955 70.6455 90.793 71.124 90.793C71.8564 90.793 72.4245 90.9688 72.8281 91.3203C73.235 91.6719 73.4385 92.1683 73.4385 92.8096C73.4385 93.1611 73.3473 93.5192 73.165 93.8838C72.9827 94.2484 72.6702 94.6732 72.2275 95.1582L70.6113 96.8623H73.668V98Z" fill="#9B51E0"/>
</svg>
